<?xml version="1.0" standalone="no"?>
<!DOCTYPE svg PUBLIC "-//W3C//DTD SVG 20010904//EN"
 "http://www.w3.org/TR/2001/REC-SVG-20010904/DTD/svg10.dtd">
<svg version="1.0" xmlns="http://www.w3.org/2000/svg"
 width="259.000000pt" height="194.000000pt" viewBox="0 0 259.000000 194.000000"
 preserveAspectRatio="xMidYMid meet">
<metadata>
Created by potrace 1.16, written by Peter Selinger 2001-2019
</metadata>
<g transform="translate(0.000000,194.000000) scale(0.100000,-0.100000)"
fill="#ffffff" stroke="none">
<path d="M778 1670 c-78 -24 -138 -89 -158 -170 -7 -31 -10 -207 -8 -555 3
-505 3 -510 25 -552 27 -50 86 -100 133 -113 21 -6 246 -10 550 -10 479 0 518
2 556 19 49 23 107 88 122 140 9 27 12 191 12 552 0 496 -1 516 -21 559 -25
56 -53 86 -104 113 -39 22 -49 22 -560 24 -286 1 -532 -2 -547 -7z m60 -932
l2 -238 -60 0 -60 0 0 233 c0 129 3 237 7 241 4 4 30 6 58 4 l50 -3 3 -237z
m210 180 c3 -57 4 -58 32 -58 29 0 30 -2 30 -45 0 -43 -1 -45 -30 -45 l-30 0
0 -85 c0 -73 3 -86 20 -95 10 -6 25 -9 32 -8 18 4 23 -59 7 -79 -10 -11 -26
-14 -63 -10 -40 3 -55 11 -78 36 -27 30 -28 35 -28 136 l0 105 -25 0 c-23 0
-25 4 -25 45 0 41 2 45 25 45 24 0 25 3 25 61 l0 60 53 -3 52 -3 3 -57z m374
-75 c56 -33 68 -72 68 -215 l0 -128 -50 0 c-39 0 -50 4 -50 16 0 9 -3 14 -7
12 -94 -48 -148 -48 -197 1 -51 51 -37 133 29 177 14 9 57 21 95 27 39 6 70
15 70 19 0 15 -46 38 -75 38 -16 -1 -47 -7 -67 -14 l-37 -13 -12 34 c-6 19 -8
37 -5 40 3 3 27 12 53 19 60 17 144 11 185 -13z m238 -111 c4 -107 8 -126 24
-138 27 -19 49 -18 77 5 22 18 24 27 27 140 l4 121 54 0 54 0 0 -180 0 -180
-46 0 c-37 0 -47 4 -51 20 -7 25 -7 25 -42 -1 -63 -47 -152 -31 -191 34 -17
28 -20 51 -20 170 l0 138 53 -3 52 -3 5 -123z"/>
</g>
</svg>
