<?xml version="1.0" standalone="no"?>
<!DOCTYPE svg PUBLIC "-//W3C//DTD SVG 20010904//EN"
 "http://www.w3.org/TR/2001/REC-SVG-20010904/DTD/svg10.dtd">
<svg version="1.0" xmlns="http://www.w3.org/2000/svg"
 width="1622.000000pt" height="1395.000000pt" viewBox="0 0 1622.000000 1395.000000"
 preserveAspectRatio="xMidYMid meet">
<metadata>
Created by potrace 1.16, written by Peter Selinger 2001-2019
</metadata>
<g transform="translate(0.000000,1395.000000) scale(0.100000,-0.100000)"
fill="#ffffff" stroke="none">
<path d="M7785 12384 c-22 -2 -98 -9 -170 -14 -159 -13 -429 -51 -602 -85
-1890 -375 -3491 -1699 -4208 -3480 -73 -182 -139 -374 -131 -382 3 -4 95 37
204 90 108 52 236 108 284 124 77 24 89 31 99 58 7 16 27 63 46 103 18 41 33
76 33 78 0 14 138 288 204 407 127 227 336 547 357 547 5 0 8 3 7 8 -3 9 74
112 84 112 4 0 8 5 8 11 0 19 173 222 315 367 186 192 383 376 460 430 6 4 35
28 65 53 220 184 591 424 875 567 158 79 333 162 343 162 4 0 28 10 52 21 24
12 49 22 54 24 6 1 25 8 41 15 108 46 536 186 595 194 14 2 32 6 41 10 9 4 27
8 41 10 13 1 28 5 34 8 29 19 498 99 659 114 39 3 73 8 76 9 15 10 332 20 569
19 227 -2 360 -9 530 -29 19 -3 42 -5 50 -5 54 -4 319 -46 440 -71 139 -28
426 -100 472 -118 13 -5 43 -15 68 -22 25 -7 50 -15 55 -18 6 -3 17 -6 25 -8
24 -3 295 -106 405 -153 220 -93 663 -325 673 -351 2 -5 9 -9 16 -9 11 0 311
-198 348 -229 7 -6 45 -35 83 -63 105 -78 224 -178 381 -319 523 -474 980
-1125 1255 -1789 l47 -115 219 -85 c120 -47 258 -103 306 -124 48 -21 90 -36
93 -33 6 6 -74 227 -146 402 -30 72 -100 222 -156 335 -295 597 -632 1068
-1094 1531 -413 414 -820 718 -1335 997 -677 367 -1409 587 -2255 678 -137 14
-813 28 -915 18z"/>
<path d="M12007 12376 c-8 -8 -18 -12 -23 -8 -5 4 -2 -2 6 -12 14 -18 13 -19
-2 -13 -15 5 -16 2 -8 -19 7 -19 7 -23 -2 -18 -8 5 -9 2 -5 -10 5 -11 3 -15
-5 -10 -8 5 -9 2 -5 -10 5 -11 3 -15 -5 -10 -8 5 -9 2 -5 -10 5 -11 3 -15 -5
-10 -8 5 -9 2 -5 -10 5 -11 3 -15 -5 -10 -8 5 -9 2 -5 -10 5 -11 3 -15 -5 -10
-8 5 -9 2 -5 -10 5 -11 3 -15 -5 -10 -8 5 -9 2 -5 -10 5 -11 3 -15 -5 -10 -8
5 -9 2 -5 -10 5 -11 3 -15 -5 -10 -8 5 -9 2 -5 -10 5 -11 3 -15 -5 -10 -8 5
-9 2 -5 -10 5 -11 3 -15 -5 -10 -8 5 -9 2 -5 -10 5 -11 3 -15 -5 -10 -8 5 -9
2 -5 -10 5 -11 3 -15 -5 -10 -8 5 -9 2 -5 -10 5 -11 3 -15 -5 -10 -8 5 -9 2
-5 -10 5 -11 3 -15 -5 -10 -7 5 -9 2 -5 -9 4 -11 1 -15 -13 -12 -14 3 -17 -1
-13 -12 4 -11 2 -14 -5 -9 -8 5 -10 1 -5 -10 5 -13 3 -15 -8 -9 -11 7 -11 5 1
-10 14 -17 13 -18 -4 -12 -17 7 -17 6 -5 -10 12 -15 12 -16 -5 -10 -17 7 -17
6 -5 -10 12 -15 12 -16 -5 -10 -17 7 -17 6 -5 -10 12 -15 12 -16 -5 -10 -17 7
-17 6 -5 -10 12 -15 12 -16 -5 -10 -17 7 -17 6 -5 -10 12 -14 12 -16 0 -8 -11
6 -13 4 -8 -9 5 -11 3 -15 -5 -10 -8 5 -9 2 -5 -10 5 -11 3 -15 -5 -10 -8 5
-9 2 -5 -10 5 -11 3 -15 -5 -10 -7 5 -9 2 -5 -9 4 -11 1 -15 -13 -12 -14 3
-17 -1 -13 -12 5 -12 3 -14 -8 -8 -11 7 -11 5 1 -10 14 -17 13 -18 -4 -12 -17
7 -17 6 -5 -10 12 -15 12 -16 -5 -10 -17 7 -17 6 -5 -10 12 -14 12 -16 0 -8
-11 6 -13 4 -8 -9 5 -11 3 -15 -5 -10 -8 5 -9 2 -5 -10 5 -11 3 -15 -5 -10 -7
5 -9 2 -5 -9 4 -12 1 -15 -14 -12 -18 4 -19 2 -7 -12 11 -15 11 -16 -6 -10
-17 7 -17 6 -5 -10 12 -15 12 -16 -5 -10 -17 7 -17 6 -5 -10 12 -14 12 -16 0
-8 -11 6 -13 4 -8 -9 5 -11 3 -15 -5 -10 -7 5 -9 2 -5 -9 11 -29 -24 -11 -203
101 -177 110 -310 187 -310 179 0 -2 57 -37 127 -77 154 -89 387 -244 548
-366 949 -717 1638 -1673 1997 -2769 34 -104 63 -192 65 -194 17 -23 510 51
861 131 l144 32 -6 32 c-4 17 -29 105 -57 195 -271 877 -718 1676 -1338 2394
-114 132 -367 391 -516 529 -145 134 -342 299 -461 386 -32 24 -63 48 -69 52
-5 5 -21 17 -34 28 -13 11 -27 20 -30 20 -3 0 -18 10 -34 23 -27 22 -90 66
-160 112 -21 14 -43 22 -49 19 -6 -4 -8 -2 -4 4 10 17 -11 24 -27 8z"/>
<path d="M4456 7718 c-11 -42 -7 -1668 4 -1689 10 -18 24 -19 244 -19 185 0
236 3 245 14 8 10 10 243 9 862 l-3 849 -246 3 -247 2 -6 -22z"/>
<path d="M5753 7729 c-179 -21 -319 -105 -382 -226 -45 -89 -53 -145 -49 -327
4 -150 7 -177 27 -222 24 -54 93 -128 152 -161 46 -26 149 -59 224 -72 74 -13
488 -54 765 -76 217 -18 243 -25 260 -71 16 -42 12 -160 -6 -178 -8 -9 -16
-17 -17 -18 -1 -2 -315 -5 -697 -8 l-695 -5 -3 -182 -2 -183 23 -5 c13 -4 360
-4 773 -2 652 3 758 6 817 20 79 20 153 55 200 96 95 84 137 264 118 508 -7
92 -14 123 -38 175 -38 80 -74 122 -139 164 -114 73 -223 94 -694 134 -384 33
-505 46 -531 61 -43 23 -48 150 -8 190 18 18 41 19 667 19 372 0 653 4 661 9
12 8 14 40 12 178 -1 94 -7 172 -12 178 -12 13 -1322 16 -1426 4z"/>
<path d="M7990 7730 c-206 -20 -348 -103 -414 -244 -38 -81 -49 -159 -44 -318
6 -175 26 -237 98 -309 86 -86 202 -128 424 -153 126 -15 585 -57 769 -72 126
-9 141 -24 145 -136 6 -137 89 -122 -725 -128 l-698 -5 -3 -174 c-2 -119 1
-178 9 -187 10 -12 127 -14 708 -14 398 0 735 4 786 10 175 20 270 63 342 158
51 68 75 156 80 307 9 232 -24 351 -121 443 -121 114 -210 136 -753 182 -414
35 -500 46 -530 66 -21 13 -23 23 -23 89 0 127 -70 115 695 115 637 0 655 1
665 19 13 25 13 321 0 341 -8 13 -95 15 -672 16 -365 1 -697 -2 -738 -6z"/>
<path d="M2001 7711 c-16 -30 -15 -1693 1 -1709 17 -17 424 -17 435 1 4 6 10
303 13 658 l5 645 180 -275 c99 -152 280 -431 402 -621 122 -190 237 -357 255
-372 20 -17 55 -32 87 -38 80 -15 714 -13 729 2 17 17 17 1699 0 1716 -18 18
-412 17 -427 -1 -8 -10 -12 -207 -13 -676 l-3 -662 -306 473 c-169 260 -346
535 -393 610 -48 75 -105 156 -126 181 -71 80 -76 81 -477 85 -343 3 -352 3
-362 -17z"/>
<path d="M10497 7721 c-155 -7 -144 1 -229 -188 -32 -71 -197 -438 -368 -818
-170 -379 -310 -695 -310 -701 0 -21 29 -24 265 -24 208 0 235 2 252 18 11 9
51 86 88 170 l68 152 505 -2 505 -3 68 -159 c37 -87 73 -163 81 -167 19 -12
515 -11 523 1 8 13 -37 113 -347 790 -141 305 -285 620 -321 700 -77 168 -103
205 -155 219 -47 13 -456 21 -625 12z m335 -390 c18 -7 32 -30 55 -88 18 -43
75 -181 128 -307 53 -126 94 -230 92 -232 -2 -3 -157 -3 -345 -2 l-340 3 132
310 c144 336 134 322 218 324 20 1 47 -3 60 -8z"/>
<path d="M12210 7721 c-13 -9 -15 -116 -15 -861 0 -745 2 -852 15 -860 23 -15
413 -13 428 2 9 9 12 171 13 662 0 507 3 647 12 633 7 -10 189 -291 405 -625
216 -334 407 -619 424 -634 17 -15 53 -32 80 -37 69 -15 735 -15 744 0 12 19
4 1702 -8 1716 -16 19 -411 19 -427 0 -8 -10 -12 -206 -13 -673 l-3 -659 -316
490 c-531 822 -506 787 -583 828 -40 21 -53 22 -391 25 -220 2 -356 -1 -365
-7z"/>
<path d="M15911 7350 c-2 -36 -3 -71 -2 -79 2 -7 -2 -10 -9 -6 -9 5 -8 0 1
-16 12 -23 11 -23 -7 -9 -10 8 -16 11 -12 6 11 -13 -11 -48 -25 -39 -7 4 -5
-2 3 -12 14 -17 13 -18 -4 -12 -17 7 -17 6 -5 -10 12 -14 12 -16 0 -8 -11 6
-13 4 -8 -9 5 -11 3 -15 -5 -10 -7 5 -9 2 -5 -9 4 -12 1 -15 -14 -12 -18 4
-19 2 -7 -12 11 -15 11 -16 -6 -10 -17 7 -17 6 -5 -10 12 -14 12 -16 0 -8 -11
6 -13 4 -8 -8 4 -11 1 -15 -13 -12 -14 3 -17 -1 -13 -12 5 -12 3 -14 -8 -8
-11 7 -11 5 1 -10 12 -15 12 -17 1 -10 -11 6 -13 4 -8 -8 4 -11 1 -15 -13 -12
-14 3 -17 -1 -13 -12 5 -12 3 -14 -8 -8 -11 7 -11 5 1 -10 12 -15 12 -17 1
-10 -11 6 -13 4 -8 -8 4 -12 1 -15 -14 -12 -18 4 -19 2 -7 -12 11 -15 11 -16
-6 -10 -16 6 -17 5 -7 -7 11 -13 9 -15 -8 -11 -15 3 -18 0 -14 -12 5 -12 3
-14 -8 -8 -11 7 -11 5 1 -10 12 -15 12 -17 1 -10 -11 6 -13 4 -8 -8 4 -11 1
-15 -13 -12 -14 3 -17 -1 -13 -12 5 -12 3 -14 -8 -8 -12 8 -12 6 -1 -8 12 -14
11 -16 -7 -12 -15 3 -18 0 -14 -12 5 -12 3 -14 -8 -8 -11 7 -11 5 1 -10 12
-15 12 -17 1 -10 -11 6 -13 4 -8 -8 4 -12 1 -15 -14 -12 -18 4 -19 2 -7 -12
11 -14 11 -16 -1 -8 -11 6 -13 4 -8 -8 4 -11 1 -15 -13 -12 -14 3 -17 -1 -13
-12 5 -12 3 -14 -8 -8 -12 8 -12 6 -1 -8 12 -14 11 -16 -7 -12 -15 3 -18 0
-14 -12 5 -12 3 -14 -8 -8 -12 8 -12 6 -1 -8 12 -14 11 -16 -7 -12 -15 3 -18
0 -14 -12 5 -12 3 -14 -8 -8 -12 8 -12 6 -1 -8 12 -14 11 -16 -7 -12 -15 3
-18 0 -14 -12 5 -12 3 -14 -8 -8 -12 8 -12 6 -1 -8 12 -14 11 -16 -7 -12 -15
3 -18 0 -14 -12 5 -12 3 -14 -8 -8 -12 8 -12 6 -1 -8 12 -14 11 -16 -8 -12
-19 4 -20 2 -8 -12 11 -14 11 -16 -1 -8 -11 6 -13 4 -8 -8 4 -12 1 -15 -14
-12 -18 4 -19 2 -7 -12 11 -14 11 -16 -1 -8 -11 6 -13 4 -8 -8 4 -12 1 -15
-14 -12 -17 3 -19 2 -9 -10 10 -12 8 -13 -9 -10 -15 3 -18 0 -14 -12 5 -12 3
-14 -8 -8 -12 8 -12 6 -1 -8 12 -14 11 -16 -8 -12 -19 4 -20 2 -8 -12 11 -14
11 -16 -1 -8 -11 6 -13 4 -8 -8 4 -12 1 -15 -14 -12 -17 3 -19 2 -9 -10 10
-12 8 -13 -8 -10 -15 3 -19 -2 -16 -21 1 -13 -2 -22 -7 -18 -5 3 -6 10 -3 16
5 7 2 8 -5 4 -7 -5 -10 -10 -7 -13 6 -7 -17 -32 -25 -27 -3 2 -5 -8 -3 -21 1
-14 -2 -23 -7 -19 -5 3 -6 10 -3 16 5 7 2 8 -5 4 -7 -5 -10 -10 -7 -13 6 -7
-17 -32 -25 -27 -3 2 -5 -8 -3 -21 1 -14 -2 -23 -7 -19 -5 3 -6 10 -3 16 5 7
2 8 -5 4 -7 -5 -10 -10 -7 -13 7 -7 -18 -32 -27 -26 -4 2 -6 -1 -5 -9 2 -7 -3
-12 -11 -10 -12 3 -12 1 -1 -13 12 -14 12 -16 -1 -13 -8 1 -16 -1 -19 -7 -7
-18 -25 -33 -33 -28 -4 2 -6 -1 -5 -9 2 -7 -3 -12 -11 -10 -12 3 -12 1 -1 -13
12 -14 12 -16 -1 -13 -8 1 -14 1 -14 -2 0 -12 -31 -37 -40 -32 -5 3 -4 -2 3
-11 12 -14 11 -16 -7 -12 -12 2 -20 -1 -18 -8 1 -7 -4 -11 -12 -9 -12 3 -12 1
-1 -13 12 -15 11 -16 -5 -13 -11 1 -20 -1 -20 -7 -1 -19 -17 -35 -28 -28 -7 4
-7 0 1 -10 12 -14 11 -16 -8 -12 -18 3 -20 2 -10 -10 10 -12 8 -13 -9 -10 -12
2 -20 -1 -18 -8 1 -7 -4 -11 -12 -9 -12 3 -12 0 -2 -12 11 -13 10 -15 -8 -11
-12 2 -19 1 -17 -4 7 -11 -11 -36 -26 -36 -7 0 -13 -5 -13 -12 0 -15 -13 -28
-28 -28 -7 0 -12 -5 -12 -12 0 -15 -13 -28 -28 -28 -7 0 -12 -5 -12 -12 0 -15
-13 -28 -28 -28 -7 0 -12 -5 -12 -12 0 -15 -13 -28 -28 -28 -7 0 -12 -5 -12
-12 0 -15 -13 -28 -28 -28 -7 0 -12 -5 -12 -12 0 -15 -13 -28 -28 -28 -7 0
-12 -5 -12 -12 0 -14 -13 -28 -28 -28 -7 -1 -11 -7 -9 -14 2 -8 -3 -11 -12 -8
-9 4 -15 1 -13 -6 1 -7 -4 -11 -12 -9 -12 3 -12 0 -2 -12 11 -13 10 -15 -8
-11 -12 2 -20 -1 -18 -8 1 -7 -4 -11 -12 -9 -11 2 -12 0 -3 -11 10 -12 8 -14
-10 -13 -13 0 -23 -4 -23 -11 0 -14 -13 -28 -28 -28 -7 -1 -11 -6 -10 -12 2
-7 -5 -12 -15 -11 -60 2 -481 -27 -475 -33 18 -15 631 -113 871 -139 61 -7
112 -16 112 -19 0 -4 37 -3 83 1 45 5 90 7 100 4 9 -2 17 -1 17 3 0 4 10 7 23
7 12 1 40 4 62 8 22 3 56 9 75 12 146 24 265 48 320 66 189 61 360 206 435
368 l30 65 3 710 c3 702 0 1121 -7 995z"/>
<path d="M342 6389 l3 -744 38 -79 c30 -64 55 -96 125 -165 55 -54 112 -100
156 -124 79 -43 195 -87 246 -93 19 -2 69 -11 110 -19 66 -12 134 -24 180 -31
8 -1 44 -5 80 -8 36 -3 81 -8 100 -11 19 -2 60 -7 90 -11 64 -7 70 -10 70 -30
0 -25 97 -313 167 -499 35 -93 65 -174 66 -180 1 -5 5 -12 8 -15 3 -3 22 -45
43 -95 180 -423 452 -894 749 -1295 55 -74 99 -137 98 -138 -1 -2 4 -9 12 -15
8 -7 61 -68 118 -137 157 -190 258 -300 428 -470 219 -218 296 -286 616 -549
11 -9 79 -59 150 -112 493 -363 1028 -659 1580 -874 88 -34 169 -66 180 -70
11 -5 22 -9 25 -10 3 -1 91 -29 195 -63 160 -51 340 -106 340 -104 0 1 52 -12
115 -29 63 -16 126 -31 140 -34 14 -2 70 -13 125 -25 273 -58 639 -111 853
-125 48 -3 101 -8 117 -10 59 -9 284 -16 505 -15 247 1 475 12 702 35 81 9
151 15 155 14 4 -1 10 -1 13 1 9 3 161 27 220 34 19 3 60 9 90 15 111 20 155
28 205 35 11 2 27 6 35 9 8 3 29 8 45 11 17 2 104 23 195 45 91 23 172 43 180
44 8 2 21 6 28 11 7 4 16 5 19 2 3 -3 11 -2 17 3 6 5 45 19 86 30 80 21 370
119 432 145 21 9 41 17 45 17 21 3 177 65 241 96 29 14 58 26 65 27 7 1 18 5
25 9 6 5 17 5 24 1 6 -4 8 -3 4 4 -3 6 3 13 14 17 11 4 51 21 88 38 37 17 70
30 75 29 4 -1 7 2 7 8 0 6 3 9 8 8 7 -2 101 45 237 117 39 21 86 46 105 56 19
11 40 19 47 19 6 0 16 6 20 14 4 7 25 19 46 26 21 6 36 15 33 18 -6 5 20 23
64 42 13 6 27 16 31 21 3 6 13 11 21 12 8 2 21 8 29 15 8 7 34 25 59 41 114
72 221 143 234 156 11 11 16 12 19 2 3 -7 6 -5 6 6 1 9 4 16 9 16 19 -3 33 2
27 11 -3 5 5 15 19 22 14 6 26 18 26 27 0 13 2 13 9 2 7 -11 10 -11 17 1 5 8
28 27 52 42 58 36 92 67 86 78 -3 5 -2 7 3 6 13 -3 54 13 49 20 -5 8 41 282
48 290 3 3 0 12 -7 20 -7 10 -8 13 -1 9 16 -9 24 38 10 54 -8 9 -8 10 1 5 7
-4 13 11 18 46 4 29 11 63 16 74 4 12 3 26 -2 33 -5 6 -6 8 -2 5 13 -9 30 79
19 95 -9 11 -8 13 2 7 11 -6 12 -1 9 23 -3 17 -1 29 4 25 5 -3 9 2 9 10 0 26
-2 31 -9 29 -4 -1 -7 14 -7 32 0 35 10 38 12 4 3 -36 6 -34 18 11 8 32 9 49 2
59 -9 11 -8 13 2 7 11 -6 12 -1 8 24 -2 17 -2 29 2 25 12 -12 30 69 18 84 -8
11 -8 13 0 8 16 -10 25 18 11 33 -9 10 -9 11 1 6 12 -7 16 11 15 71 0 12 4 20
8 17 5 -3 9 6 9 20 0 14 6 26 13 26 9 0 8 3 -2 9 -11 7 -11 9 0 14 11 4 11 6
1 6 -10 1 -10 5 2 17 15 15 13 39 -3 30 -3 -3 -7 11 -7 29 0 35 10 38 12 4 1
-10 2 -22 3 -26 1 -5 22 73 47 172 24 99 47 187 51 195 3 8 5 23 4 33 -1 9 4
17 11 17 8 0 9 3 3 8 -5 4 -11 13 -13 21 -3 12 0 12 12 2 12 -10 14 -9 9 8 -3
12 -8 21 -12 21 -4 0 -54 -55 -111 -122 -136 -160 -381 -410 -546 -559 -668
-597 -1457 -1031 -2329 -1279 -801 -227 -1649 -283 -2495 -164 -1422 200
-2743 927 -3645 2005 -354 423 -630 858 -844 1331 -83 182 -192 465 -233 601
-17 59 -28 79 -43 82 -11 2 -184 11 -385 21 -293 14 -368 20 -382 32 -10 8
-18 11 -18 7 0 -5 -6 -3 -12 3 -7 7 -13 18 -13 25 0 7 -10 11 -23 11 -18 -1
-20 1 -10 13 9 11 8 13 -3 11 -8 -2 -13 2 -12 9 2 7 -6 10 -18 8 -18 -4 -19
-2 -8 11 10 12 10 15 -2 12 -8 -2 -13 2 -12 9 2 7 -6 10 -18 8 -18 -4 -19 -2
-8 11 10 12 10 15 -2 12 -8 -2 -13 2 -12 9 2 7 -4 10 -13 6 -9 -3 -14 0 -12 8
2 7 -2 13 -9 14 -15 0 -28 14 -28 28 0 7 -5 12 -12 12 -15 0 -28 13 -28 28 0
7 -5 12 -12 12 -15 0 -28 13 -28 28 0 7 -5 12 -12 12 -15 0 -28 13 -28 28 0 7
-5 12 -12 12 -15 0 -28 13 -28 28 0 7 -10 11 -22 11 -15 -1 -20 3 -15 14 4 11
2 13 -9 7 -12 -8 -12 -6 0 9 12 15 12 17 0 14 -8 -2 -13 2 -12 9 2 7 -6 10
-18 8 -18 -4 -19 -2 -8 11 10 12 10 15 -2 12 -8 -2 -13 2 -12 9 2 7 -6 10 -18
8 -17 -3 -19 -2 -9 10 10 12 8 13 -10 10 -19 -4 -20 -2 -8 12 8 10 8 14 1 10
-11 -7 -27 9 -28 28 0 6 -9 8 -20 7 -16 -3 -17 -2 -5 13 11 14 11 16 -1 13 -8
-2 -13 2 -12 9 2 7 -6 10 -18 8 -18 -4 -19 -2 -7 12 8 10 8 14 1 10 -11 -7
-27 9 -28 28 0 6 -9 8 -20 7 -16 -3 -17 -2 -5 13 11 14 11 16 -1 13 -8 -2 -13
3 -11 10 1 8 -1 11 -5 9 -8 -5 -32 16 -35 30 -2 5 -9 6 -17 5 -13 -3 -13 -1
-1 13 11 14 11 16 -1 13 -8 -2 -13 3 -11 10 1 8 -1 11 -5 9 -8 -5 -28 12 -30
26 -1 5 -5 12 -9 15 -4 4 -4 2 0 -5 3 -6 2 -14 -3 -17 -5 -4 -8 5 -7 19 2 13
0 23 -3 21 -7 -4 -27 15 -28 27 -1 5 -5 12 -9 15 -4 4 -4 2 0 -5 3 -6 2 -14
-3 -17 -5 -4 -8 5 -6 19 1 14 0 24 -2 21 -7 -7 -32 18 -27 26 2 4 -1 10 -7 14
-7 4 -9 3 -5 -4 3 -6 2 -13 -3 -16 -5 -4 -8 5 -7 18 3 19 -1 24 -16 21 -17 -4
-18 -2 -6 12 8 11 9 14 1 10 -13 -8 -37 26 -26 36 3 4 -4 4 -17 2 -19 -4 -20
-2 -8 12 11 14 11 16 -1 8 -11 -6 -13 -4 -8 8 4 12 1 15 -14 12 -17 -3 -19 -2
-9 10 10 12 8 13 -9 10 -15 -3 -18 0 -14 12 5 12 3 14 -8 8 -12 -8 -12 -6 -1
8 12 14 11 16 -8 12 -19 -4 -20 -2 -8 12 11 14 11 16 -1 8 -11 -6 -13 -4 -8 8
4 12 1 15 -14 12 -18 -4 -19 -2 -7 12 11 14 11 16 -1 8 -11 -6 -13 -4 -8 8 4
12 1 15 -14 12 -18 -4 -19 -2 -7 12 11 14 11 16 -1 8 -11 -6 -13 -4 -8 8 4 12
1 15 -14 12 -18 -4 -19 -2 -7 12 11 14 11 16 -1 8 -11 -6 -13 -4 -8 8 4 12 1
15 -14 12 -18 -4 -19 -2 -7 12 11 14 11 16 -1 8 -11 -6 -13 -4 -8 8 4 12 1 15
-14 12 -18 -4 -19 -2 -7 12 11 14 11 16 -1 8 -11 -6 -13 -4 -8 8 4 12 1 15
-14 12 -18 -4 -19 -2 -7 12 11 14 11 16 -1 8 -11 -6 -13 -4 -8 8 4 11 1 15
-13 12 -14 -3 -17 1 -13 12 5 12 3 14 -8 8 -12 -8 -12 -6 -1 8 12 14 11 16 -7
12 -15 -3 -18 0 -14 12 5 12 3 14 -8 8 -11 -7 -11 -5 1 10 12 15 12 17 1 10
-11 -6 -13 -4 -8 8 4 12 1 15 -14 12 -17 -4 -19 -2 -8 11 10 12 9 13 -7 7 -17
-6 -18 -5 -4 12 10 13 11 16 2 11 -9 -5 -15 -1 -19 13 -3 12 -10 21 -15 21 -5
0 -7 -4 -3 -9 3 -5 1 -12 -4 -15 -14 -9 -7 19 9 40 14 16 13 16 -10 4 -24 -13
-24 -12 -10 5 8 10 10 16 4 12 -8 -5 -12 20 -13 85 -1 51 -4 94 -7 97 -2 3 -3
-330 -2 -740z"/>
<path d="M2650 5267 c0 -2 18 -52 40 -111 220 -587 530 -1135 907 -1606 160
-200 260 -309 283 -307 14 1 16 4 8 14 -8 11 -7 12 8 6 17 -6 17 -5 6 10 -12
14 -11 16 8 12 18 -3 20 -2 10 10 -10 12 -8 13 10 10 18 -4 20 -2 9 11 -10 12
-9 13 7 7 17 -6 17 -5 6 10 -12 14 -11 16 8 12 18 -3 20 -2 10 10 -10 12 -8
13 10 10 18 -4 20 -2 9 11 -10 12 -9 13 7 7 17 -6 17 -5 6 10 -12 14 -11 16 8
12 18 -3 20 -2 10 10 -10 12 -8 13 10 10 18 -4 20 -2 9 11 -10 12 -9 13 7 7
17 -6 18 -5 4 13 -8 10 -11 16 -6 12 4 -4 17 2 29 12 23 22 15 26 133 -61 80
-60 268 -179 282 -179 3 0 -51 57 -119 128 -371 381 -653 769 -886 1219 -74
143 -193 395 -193 410 0 3 42 2 93 -1 50 -3 144 -8 207 -11 293 -12 380 -16
440 -20 36 -2 142 -7 235 -10 94 -3 197 -8 230 -10 33 -3 134 -7 225 -10 91
-3 219 -7 285 -10 308 -13 603 -23 870 -30 105 -3 262 -7 350 -10 88 -3 275
-7 415 -10 140 -3 392 -8 560 -11 392 -8 1427 -8 1865 0 533 9 1117 23 1335
31 74 3 218 7 320 10 102 3 230 7 285 10 55 3 174 7 265 10 91 3 206 7 255 10
50 3 160 7 245 10 85 3 189 7 230 10 41 3 138 7 215 10 174 7 324 14 435 20
47 3 148 7 225 11 153 6 153 6 419 116 120 50 321 147 315 152 -2 1 -211 -7
-464 -20 -2625 -127 -4804 -164 -6785 -115 -1225 31 -3089 101 -3617 137 -51
3 -93 4 -93 1z"/>
</g>
</svg>
