<?xml version="1.0" standalone="no"?>
<!DOCTYPE svg PUBLIC "-//W3C//DTD SVG 20010904//EN"
 "http://www.w3.org/TR/2001/REC-SVG-20010904/DTD/svg10.dtd">
<svg version="1.0" xmlns="http://www.w3.org/2000/svg"
 width="600.000000pt" height="60.000000pt" viewBox="0 0 600.000000 60.000000"
 preserveAspectRatio="xMidYMid meet">
<metadata>
Created by potrace 1.16, written by Peter Selinger 2001-2019
</metadata>
<g transform="translate(0.000000,60.000000) scale(0.100000,-0.100000)"
fill="#ffffff" stroke="none">
<path d="M2800 465 c0 -41 -2 -45 -25 -45 -20 0 -25 -5 -25 -25 0 -20 5 -25
25 -25 l25 0 0 -105 c0 -128 10 -145 90 -145 49 0 50 1 50 29 0 25 -4 30 -27
33 l-28 3 -3 93 -3 92 31 0 c25 0 30 4 30 25 0 21 -5 25 -30 25 -29 0 -30 2
-30 45 l0 45 -40 0 -40 0 0 -45z"/>
<path d="M57 390 c-77 -67 -66 -215 19 -261 35 -18 103 -18 138 0 85 46 96
194 19 261 -29 25 -42 30 -88 30 -46 0 -59 -5 -88 -30z m152 -16 c60 -50 62
-153 6 -210 -18 -18 -35 -24 -70 -24 -55 0 -87 27 -105 87 -25 82 31 173 105
173 21 0 45 -9 64 -26z"/>
<path d="M350 215 c0 -176 2 -205 15 -205 12 0 15 16 15 84 l0 84 28 -28 c37
-37 87 -46 135 -26 52 21 77 67 77 139 0 107 -43 157 -135 157 -38 0 -52 -5
-76 -29 l-29 -29 0 29 c0 19 -5 29 -15 29 -13 0 -15 -29 -15 -205z m196 167
c32 -26 44 -55 44 -112 0 -56 -20 -104 -49 -120 -11 -5 -37 -10 -58 -10 -31 0
-46 7 -69 31 -26 28 -29 36 -29 100 0 67 2 72 33 100 38 34 94 39 128 11z"/>
<path d="M739 405 c-37 -20 -59 -73 -59 -143 0 -76 28 -121 88 -142 57 -20
116 0 150 50 32 48 9 53 -30 6 -26 -31 -35 -36 -73 -36 -55 0 -93 30 -104 83
l-9 37 119 0 119 0 0 25 c0 39 -25 89 -55 113 -33 26 -105 29 -146 7z m115
-16 c23 -11 56 -62 56 -88 0 -7 -34 -11 -100 -11 -89 0 -100 2 -100 18 0 19
25 60 50 79 19 16 62 16 94 2z"/>
<path d="M1000 270 c0 -127 2 -150 15 -150 12 0 15 18 15 100 0 107 13 150 49
170 31 16 77 12 102 -9 22 -18 24 -27 27 -140 3 -96 7 -121 18 -121 11 0 14
22 14 109 0 162 -15 191 -104 191 -33 0 -52 -6 -75 -26 l-31 -26 0 26 c0 16
-6 26 -15 26 -13 0 -15 -23 -15 -150z"/>
<path d="M1315 270 l0 -150 38 0 37 0 0 150 0 150 -37 0 -38 0 0 -150z"/>
<path d="M1460 270 l0 -150 34 0 34 0 4 105 c4 113 10 128 60 140 19 5 32 1
47 -14 19 -19 21 -33 21 -126 l0 -105 41 0 41 0 -4 124 c-3 116 -5 126 -27
150 -32 34 -115 37 -149 6 -12 -11 -24 -20 -27 -20 -3 0 -5 9 -5 20 0 16 -7
20 -35 20 l-35 0 0 -150z"/>
<path d="M1825 273 l52 -148 44 -3 44 -3 52 151 52 150 -37 0 -38 0 -34 -105
c-19 -58 -37 -102 -40 -98 -4 5 -20 52 -35 106 l-28 97 -42 0 -42 0 52 -147z"/>
<path d="M2155 400 c-41 -27 -65 -76 -65 -133 0 -95 56 -152 151 -152 64 0
100 19 124 65 l16 30 -31 0 c-17 0 -40 -9 -52 -20 -42 -39 -120 -18 -130 35
l-5 25 114 0 115 0 -7 37 c-9 50 -29 87 -61 112 -36 29 -127 29 -169 1z"/>
<path d="M2438 270 l3 -150 35 0 34 0 0 99 c0 115 14 144 69 144 50 0 56 -13
59 -133 l4 -110 39 0 39 0 0 93 c-1 166 -22 207 -110 207 -33 0 -55 -6 -74
-21 l-26 -20 0 20 c0 18 -6 21 -37 21 l-38 0 3 -150z"/>
<path d="M2980 270 l0 -150 40 0 40 0 0 150 0 150 -40 0 -40 0 0 -150z"/>
<path d="M3183 400 c-48 -29 -66 -71 -61 -146 3 -54 9 -68 33 -94 35 -36 93
-54 146 -45 75 13 119 70 119 155 0 98 -52 150 -150 150 -37 0 -66 -6 -87 -20z
m122 -36 c22 -9 45 -57 45 -94 0 -69 -46 -111 -105 -96 -48 12 -70 98 -40 156
19 37 57 50 100 34z"/>
<path d="M3480 270 l0 -150 38 0 37 0 -3 74 c-4 96 11 154 44 166 35 14 41 13
64 -10 17 -17 20 -33 20 -125 l0 -105 40 0 40 0 0 109 c0 161 -16 190 -106
191 -38 0 -55 -5 -69 -20 -10 -11 -22 -20 -27 -20 -4 0 -8 9 -8 20 0 16 -7 20
-35 20 l-35 0 0 -150z"/>
</g>
</svg>
