<svg version="1.0" xmlns="http://www.w3.org/2000/svg" width="537" height="94" viewBox="0 0 537 94" preserveAspectRatio="xMidYMid meet">
<g transform="translate(0,94) scale(0.1,-0.1)" fill="#ffffff" stroke="none">
<path d="M480 884 c-23 -69 -9 -121 71 -260 41 -70 79 -142 86 -159 17 -43 15 -110 -3 -153 l-16 -37 -20 40 c-11 22 -57 103 -101 179 -43 77 -89 159 -102 184 l-23 45 -12 -38 c-7 -20 -10 -63 -8 -94 3 -50 14 -76 82 -191 86 -149 104 -203 87 -265 -11 -41 -28 -73 -33 -65 -2 3 -17 32 -33 65 -17 33 -61 113 -99 177 -42 72 -70 132 -73 157 -7 48 -8 48 -108 2 -118 -54 -184 -140 -170 -221 15 -86 97 -157 240 -207 75 -26 91 -27 245 -28 177 0 230 10 335 62 73 37 104 63 132 110 67 115 -2 231 -179 297 -59 22 -64 27 -79 70 -10 25 -51 106 -92 178 -42 73 -81 145 -88 161 -16 36 -25 34 -39 -9z"/>
<path d="M1355 679 c-59 -7 -100 -27 -135 -63 -19 -21 -25 -40 -28 -90 -7 -102 31 -150 159 -202 66 -27 115 -57 136 -84 21 -26 15 -74 -12 -100 -35 -32 -137 -39 -220 -15 -31 9 -59 15 -61 13 -2 -2 -6 -22 -10 -45 l-6 -42 53 -15 c67 -20 194 -21 250 -1 78 28 119 83 119 160 0 92 -47 144 -180 200 -100 42 -130 68 -130 115 0 48 26 76 79 85 35 6 137 -6 172 -20 12 -4 18 1 23 17 14 52 8 67 -31 77 -57 14 -122 18 -178 10z"/>
<path d="M2760 671 l-25 -7 0 -276 c0 -264 1 -278 21 -305 28 -38 80 -63 131 -63 67 0 90 13 95 53 l4 35 -59 -1 c-51 -2 -61 1 -78 22 -17 20 -19 40 -19 157 l0 134 74 0 c79 0 86 5 86 56 0 23 -2 24 -80 24 l-80 0 0 90 c0 99 -1 100 -70 81z"/>
<path d="M4423 673 c-21 -4 -23 -10 -23 -77 l0 -74 -87 -4 c-158 -8 -229 -70 -248 -215 -19 -141 55 -261 171 -279 53 -8 126 16 148 48 14 20 15 19 18 -8 3 -26 7 -29 45 -32 l42 -3 3 325 3 326 -25 -1 c-14 -1 -35 -4 -47 -6z m-23 -393 l0 -148 -40 -16 c-70 -28 -134 -16 -165 30 -26 40 -37 112 -25 169 18 89 76 125 186 116 l44 -3 0 -148z"/>
<path d="M1827 507 c-52 -16 -103 -60 -129 -110 -32 -60 -32 -203 -1 -263 37 -70 107 -114 181 -114 30 0 84 23 101 43 19 24 31 21 31 -8 0 -23 4 -25 45 -25 l45 0 0 234 0 234 -63 11 c-80 14 -161 13 -210 -2z m173 -228 l0 -150 -37 -16 c-80 -33 -162 1 -183 76 -24 88 -6 168 49 214 29 24 41 27 102 27 l69 0 0 -151z"/>
<path d="M2278 508 l-58 -10 0 -235 0 -234 48 3 47 3 3 197 2 197 38 3 c62 5 122 -8 145 -31 21 -20 22 -32 25 -196 l3 -175 45 0 45 0 -3 199 -3 200 -30 31 c-52 55 -164 72 -307 48z"/>
<path d="M3170 501 c-99 -35 -140 -106 -140 -242 0 -87 30 -164 76 -196 72 -50 160 -53 220 -8 l33 25 3 -23 c3 -19 10 -22 51 -25 l47 -3 0 231 0 230 -27 11 c-16 6 -68 13 -118 15 -72 4 -101 1 -145 -15z m190 -216 c0 -143 0 -145 -25 -161 -38 -25 -106 -29 -143 -10 -101 52 -88 270 18 309 8 3 45 6 83 6 l67 1 0 -145z"/>
<path d="M3628 508 l-58 -10 0 -234 0 -234 50 0 50 0 0 200 0 200 70 0 c80 0 113 -12 129 -47 7 -14 11 -89 11 -188 l0 -165 50 0 50 0 0 178 c0 212 -10 246 -82 283 -50 26 -179 34 -270 17z"/>
<path d="M4717 505 c-88 -31 -131 -106 -131 -230 0 -125 44 -198 139 -235 44 -18 183 -16 226 3 32 13 37 20 40 55 l4 39 -39 -13 c-21 -8 -71 -14 -111 -14 -86 0 -133 25 -151 80 l-12 35 164 3 164 2 0 73 c0 77 -21 137 -58 170 -49 44 -160 59 -235 32z m150 -85 c31 -18 60 -81 47 -102 -3 -4 -57 -8 -121 -8 l-115 0 6 28 c21 87 109 127 183 82z"/>
<path d="M5163 508 l-53 -10 0 -234 0 -234 50 0 50 0 0 200 0 200 74 0 74 0 6 35 c4 20 4 40 1 45 -8 12 -131 11 -202 -2z"/>
</g>
</svg>
