<?xml version="1.0" standalone="no"?>
<!DOCTYPE svg PUBLIC "-//W3C//DTD SVG 20010904//EN"
 "http://www.w3.org/TR/2001/REC-SVG-20010904/DTD/svg10.dtd">
<svg version="1.0" xmlns="http://www.w3.org/2000/svg"
 width="428.000000pt" height="118.000000pt" viewBox="0 0 428.000000 118.000000"
 preserveAspectRatio="xMidYMid meet">
<metadata>
Created by potrace 1.16, written by Peter Selinger 2001-2019
</metadata>
<g transform="translate(0.000000,118.000000) scale(0.100000,-0.100000)"
fill="#ffffff" stroke="none">
<path d="M970 1160 c-288 -5 -356 -9 -410 -24 -113 -31 -178 -75 -209 -140
-35 -71 -21 -139 34 -164 40 -18 42 -16 37 36 -8 91 48 162 164 203 45 16 91
22 199 26 l140 5 -40 -29 c-52 -38 -100 -93 -126 -144 -11 -23 -59 -141 -105
-263 -115 -300 -122 -316 -155 -358 -16 -20 -29 -40 -29 -43 0 -10 81 5 110
20 33 17 74 62 95 104 9 19 48 118 85 220 123 337 154 407 203 459 l31 32 111
0 c122 0 200 17 230 50 18 19 18 20 -1 18 -10 -1 -174 -5 -364 -8z"/>
<path d="M2193 1141 c-28 -9 -70 -30 -92 -44 -41 -27 -110 -108 -137 -158 -8
-17 -34 -37 -62 -50 l-47 -23 36 -5 36 -6 -36 -100 c-32 -90 -42 -106 -101
-166 -72 -73 -132 -109 -182 -109 -54 0 -62 12 -59 86 1 28 9 36 74 75 39 23
95 64 123 91 149 141 81 251 -99 161 -112 -56 -209 -208 -215 -338 -4 -65 -2
-74 21 -101 24 -27 30 -29 99 -29 83 1 148 28 218 92 22 19 40 33 40 29 0 -20
-86 -217 -106 -243 l-25 -33 30 0 c42 0 71 13 105 46 40 41 64 93 146 324 40
113 75 208 79 211 3 4 43 9 89 12 l84 6 -51 -45 c-82 -74 -141 -200 -141 -302
0 -62 40 -102 102 -102 62 0 139 41 194 103 53 61 117 188 134 268 13 56 13
57 53 62 46 6 57 3 57 -20 0 -8 -34 -100 -75 -204 -41 -103 -75 -191 -75 -194
0 -3 21 -5 48 -5 l47 0 49 98 c64 128 124 218 186 276 47 44 70 51 70 22 0 -8
-21 -58 -46 -112 -85 -181 -98 -238 -69 -294 12 -24 59 -60 78 -60 2 0 4 24 4
53 0 67 11 102 86 262 72 153 80 208 36 234 -22 12 -34 13 -67 3 -54 -16 -118
-66 -162 -124 -19 -26 -35 -46 -37 -44 -1 1 7 26 18 56 11 29 19 65 17 79 -4
37 -44 38 -182 6 l-112 -27 -12 -81 c-25 -169 -136 -332 -202 -297 -74 40 59
363 163 396 20 6 36 21 37 34 0 3 -68 4 -150 2 l-151 -3 26 51 c60 118 144
175 247 168 48 -4 65 -9 79 -27 23 -28 24 -69 3 -99 -24 -35 -12 -36 33 -3 71
51 75 119 8 146 -50 21 -196 19 -262 -4z m-447 -276 c15 -39 -30 -108 -114
-175 -28 -22 -53 -40 -56 -40 -13 0 -5 28 27 95 47 98 126 164 143 120z"/>
<path d="M1513 1096 c-29 -6 -57 -16 -63 -22 -6 -6 -53 -105 -104 -219 -101
-225 -144 -289 -235 -346 -51 -33 -115 -39 -125 -13 -8 22 -7 87 2 99 4 6 30
24 57 40 131 75 215 165 215 233 0 41 -24 57 -80 56 -55 -2 -115 -30 -172 -82
-128 -115 -190 -333 -113 -399 56 -49 183 -19 274 62 l41 37 0 -54 c0 -60 16
-90 59 -113 l28 -14 6 57 c7 80 44 184 152 427 89 199 117 266 112 264 -1 -1
-25 -6 -54 -13z m-335 -246 c4 -37 -48 -112 -112 -160 -31 -24 -59 -41 -62
-38 -7 8 31 101 60 147 48 75 108 102 114 51z"/>
<path d="M3405 908 c-47 -17 -111 -64 -149 -111 -42 -51 -94 -158 -102 -210
-5 -25 -18 -47 -40 -67 -62 -54 -111 -49 -97 10 8 34 87 219 130 303 19 38 32
71 30 73 -9 9 -100 -10 -117 -25 -19 -17 -116 -222 -144 -304 -22 -66 -21
-120 4 -142 32 -29 119 -17 177 25 34 23 48 29 52 19 2 -7 14 -23 27 -36 19
-19 34 -23 79 -23 66 0 113 18 172 66 l43 35 0 -30 c0 -44 31 -71 80 -71 52 0
93 21 152 77 l47 46 -9 -38 c-15 -68 10 -122 65 -139 19 -5 20 -1 21 52 1 31
9 86 18 122 13 50 87 243 132 347 16 34 -152 36 -241 2 -84 -31 -165 -116
-225 -233 -43 -85 -86 -133 -147 -165 -28 -14 -66 -14 -81 1 -45 45 33 264
124 348 72 66 125 46 84 -31 -21 -42 -20 -45 13 -28 108 56 97 140 -18 138
-27 0 -63 -5 -80 -11z m455 -38 c0 -19 -91 -213 -124 -264 -58 -90 -136 -143
-152 -102 -8 20 22 118 56 186 34 68 113 158 155 176 36 16 65 18 65 4z"/>
<path d="M670 50 c-646 -11 -640 -11 -600 -20 19 -5 287 -11 595 -14 308 -4
781 -8 1050 -11 542 -5 2411 12 2490 24 35 5 -17 9 -170 14 -322 10 -2869 16
-3365 7z"/>
</g>
</svg>
