<?xml version="1.0" standalone="no"?>
<!DOCTYPE svg PUBLIC "-//W3C//DTD SVG 20010904//EN"
 "http://www.w3.org/TR/2001/REC-SVG-20010904/DTD/svg10.dtd">
<svg version="1.0" xmlns="http://www.w3.org/2000/svg"
 width="600.000000pt" height="84.000000pt" viewBox="0 0 600.000000 84.000000"
 preserveAspectRatio="xMidYMid meet">
<metadata>
Created by potrace 1.16, written by Peter Selinger 2001-2019
</metadata>
<g transform="translate(0.000000,84.000000) scale(0.100000,-0.100000)"
fill="#ffffff" stroke="none">
<path d="M1127 554 c-4 -4 -7 -15 -7 -25 0 -15 10 -19 53 -21 l52 -3 3 -137 3
-138 29 0 29 0 3 138 3 137 53 3 c48 3 53 5 50 25 -3 21 -8 22 -134 25 -71 1
-133 -1 -137 -4z"/>
<path d="M1460 395 l0 -165 30 0 30 0 0 70 0 70 80 0 80 0 0 -70 0 -70 35 0
35 0 -2 163 -3 162 -30 0 c-30 0 -30 0 -33 -62 l-3 -63 -79 0 -80 0 0 65 0 65
-30 0 -30 0 0 -165z"/>
<path d="M1915 553 c-32 -9 -65 -34 -81 -64 -19 -38 -19 -161 1 -199 41 -79
183 -90 250 -20 27 28 30 39 33 109 3 59 0 86 -13 110 -27 53 -115 83 -190 64z
m119 -72 c20 -21 32 -95 22 -136 -17 -66 -103 -89 -151 -40 -21 20 -25 34 -25
82 0 63 17 98 54 113 29 13 77 3 100 -19z"/>
<path d="M2197 554 c-4 -4 -7 -79 -7 -166 l0 -158 30 0 30 0 1 108 1 107 40
-87 c59 -128 77 -128 136 0 l41 87 0 -107 1 -108 30 0 30 0 -2 163 -3 162 -29
0 c-27 0 -34 -8 -80 -97 -28 -54 -53 -98 -56 -98 -3 0 -27 44 -55 98 -41 80
-54 98 -75 100 -14 2 -29 0 -33 -4z"/>
<path d="M2651 542 c-45 -22 -59 -62 -38 -107 13 -26 27 -36 81 -56 77 -27
106 -51 90 -77 -9 -13 -29 -18 -93 -20 -78 -3 -82 -4 -79 -25 2 -18 12 -23 53
-30 105 -16 179 14 191 79 8 44 -25 77 -111 112 -52 21 -71 34 -73 50 -5 33
29 45 110 37 69 -7 70 -7 66 16 -4 27 -30 37 -108 38 -34 1 -68 -6 -89 -17z"/>
<path d="M2991 542 c-55 -27 -75 -63 -79 -140 -4 -81 16 -126 68 -156 68 -40
178 -19 217 41 27 41 25 172 -3 210 -27 37 -80 63 -129 63 -22 0 -55 -8 -74
-18z m105 -42 c42 -16 53 -39 54 -106 0 -82 -23 -114 -83 -114 -65 0 -87 28
-87 110 0 68 9 89 45 108 25 14 37 15 71 2z"/>
<path d="M3297 553 c-4 -3 -7 -78 -7 -165 l0 -158 25 0 25 0 0 116 c0 63 4
113 9 110 4 -3 38 -55 75 -116 l68 -110 44 0 44 0 0 166 0 165 -27 -3 -28 -3
-3 -124 -3 -124 -66 109 c-36 60 -73 117 -81 127 -15 17 -62 23 -75 10z"/>
<path d="M3818 553 c-16 -4 -18 -20 -18 -164 l0 -159 30 0 30 0 0 60 0 60 39
0 c38 0 41 -3 76 -60 33 -55 39 -60 72 -60 l35 0 -23 38 c-57 96 -55 84 -20
119 53 54 37 129 -35 159 -31 13 -147 17 -186 7z"/>
<path d="M4180 553 c-34 -12 -40 -36 -40 -163 0 -112 2 -129 19 -144 25 -22
84 -30 156 -21 50 6 56 9 53 28 -3 20 -10 22 -85 25 l-83 3 0 44 0 44 83 3
c76 3 82 5 85 26 3 21 1 22 -83 22 l-86 0 3 43 3 42 83 3 c72 2 82 5 82 21 0
11 -7 22 -16 25 -19 7 -153 7 -174 -1z"/>
<path d="M4440 438 c0 -133 7 -158 53 -192 36 -27 127 -28 175 -2 51 27 63 67
60 199 l-3 112 -30 0 -30 0 -5 -124 c-5 -121 -6 -124 -32 -144 -23 -17 -34
-19 -65 -11 -53 13 -63 38 -63 172 l0 112 -30 0 -30 0 0 -122z"/>
<path d="M4777 553 c-4 -3 -7 -15 -7 -25 0 -15 8 -18 55 -18 l55 0 0 -140 0
-140 35 0 35 0 0 140 0 140 50 0 c47 0 50 2 50 25 l0 25 -133 0 c-74 0 -137
-3 -140 -7z"/>
<path d="M5125 535 c-24 -23 -25 -30 -25 -142 0 -89 4 -124 15 -140 19 -27 77
-37 162 -28 58 6 64 9 61 28 -3 20 -10 22 -83 25 -86 3 -95 8 -95 60 l0 32 85
0 c84 0 85 0 85 25 0 24 -2 24 -82 27 -83 3 -83 3 -86 31 -6 47 12 57 99 57
71 0 79 2 79 19 0 24 -26 31 -118 31 -64 0 -76 -3 -97 -25z"/>
<path d="M5433 553 c-10 -3 -13 -46 -13 -164 l0 -159 30 0 30 0 0 60 0 60 39
0 c38 0 41 -3 76 -60 33 -55 39 -60 71 -60 l35 0 -26 43 c-50 80 -50 81 -16
115 50 50 37 121 -29 154 -34 17 -165 25 -197 11z"/>
<path d="M5820 553 c-61 -20 -88 -60 -72 -104 14 -35 40 -54 98 -73 58 -19 88
-45 82 -73 -3 -15 -15 -18 -91 -21 -85 -3 -88 -4 -85 -25 2 -18 12 -23 53 -30
100 -15 175 12 189 69 11 43 -11 81 -57 101 -88 38 -122 59 -125 75 -5 27 43
41 116 33 61 -6 62 -6 62 18 0 20 -6 25 -37 31 -44 7 -111 7 -133 -1z"/>
</g>
</svg>
