<svg version="1.0" xmlns="http://www.w3.org/2000/svg" width="267" height="189" viewBox="0 0 267 189" preserveAspectRatio="xMidYMid meet">
<g transform="translate(0,189) scale(0.1,-0.1)" fill="#ffffff" stroke="none">
<path d="M1215 1754 c-198 -32 -393 -145 -518 -299 -57 -71 -130 -215 -154 -305 -14 -49 -18 -103 -18 -215 1 -143 2 -155 33 -245 43 -124 98 -215 185 -306 162 -171 357 -254 597 -254 229 0 428 86 587 254 87 91 142 182 185 306 31 91 32 101 33 250 0 135 -3 165 -23 230 -89 281 -288 478 -568 561 -69 20 -270 34 -339 23z m307 -89 c243 -63 438 -248 524 -500 25 -71 28 -95 28 -215 1 -115 -3 -146 -22 -210 -141 -449 -620 -665 -1037 -465 -195 93 -330 251 -397 465 -30 96 -32 288 -5 390 75 281 311 498 599 550 71 12 232 5 310 -15z"/>
<path d="M1235 1516 c-5 -2 -22 -7 -36 -10 l-27 -6 82 -181 81 -181 17 39 c9 21 46 102 81 180 57 123 63 142 49 149 -19 7 -231 16 -247 10z"/>
<path d="M940 1364 c-38 -37 -70 -70 -70 -75 0 -11 250 -570 260 -582 4 -5 29 42 56 102 l49 111 100 0 100 0 49 -110 c27 -61 52 -107 56 -103 10 12 260 570 260 581 0 11 -137 142 -148 142 -4 0 -54 -106 -112 -235 l-105 -235 -100 0 -100 0 -105 235 c-57 129 -108 235 -112 235 -4 0 -39 -30 -78 -66z"/>
<path d="M766 1059 c-11 -58 -6 -204 9 -263 34 -131 131 -266 240 -335 27 -17 50 -29 52 -27 3 3 -284 646 -292 654 -1 1 -5 -12 -9 -29z"/>
<path d="M1750 770 c-80 -177 -147 -326 -149 -332 -8 -24 87 41 144 98 112 112 166 248 164 414 -2 171 0 174 -159 -180z"/>
<path d="M1255 565 c-43 -96 -76 -177 -74 -179 2 -2 38 -9 79 -15 69 -9 214 -1 228 14 4 4 -118 288 -147 343 -4 7 -40 -60 -86 -163z"/>
</g>
</svg>
